# xmcd
#
# Track frame offsets:
# 150
# 7087
# 21165
# 37154
# 49851
# 62489
# 72600
# 88853
# 104783
# 120066
# 136730
# 150867
# 162859
# 175556
# 191398
# 206505
# 221377
#
# Disc length: 3167 seconds
#
#
# Revision: 1
# Processed by: cddbd v1.5.2PL0 Copyright (c) Steve Scherf et al.
# Submitted via: FreeRIP 2.945 
#
DISCID=e00c5d11
DTITLE=planeta de cores - planeta de cores
DYEAR=1900
DGENRE=calipso
TTITLE0=dg
TTITLE1=planeta
TTITLE2=dg
TTITLE3=jtt
TTITLE4=f
TTITLE5=jhj
TTITLE6=jhjh
TTITLE7=d
TTITLE8=f
TTITLE9=dfh
TTITLE10=gjuj
TTITLE11=dh
TTITLE12=g
TTITLE13=s
TTITLE14=sgh
TTITLE15=ht
TTITLE16=planeta
EXTD=gira planeta!!!!!!!!!
EXTT0=
EXTT1=
EXTT2=
EXTT3=
EXTT4=
EXTT5=
EXTT6=
EXTT7=
EXTT8=
EXTT9=
EXTT10=
EXTT11=
EXTT12=
EXTT13=
EXTT14=
EXTT15=
EXTT16=
PLAYORDER=
